<svg width="159" height="161" viewBox="0 0 159 161" fill="none" xmlns="http://www.w3.org/2000/svg">
<g filter="url(#filter0_d_81_690)">
<ellipse cx="79.5" cy="76.5" rx="75.5" ry="76.5" fill="#2E294E"/>
</g>
<path d="M48.875 48.5938C51.1875 48.5938 53.1875 49.2812 54.875 50.6562C56.625 51.9688 58.125 53.75 59.375 56C60.6875 58.25 61.7812 60.8438 62.6562 63.7812C63.5312 66.7188 64.25 69.8125 64.8125 73.0625C65.375 76.25 65.8125 79.5 66.125 82.8125C66.4375 86.0625 66.6562 89.125 66.7812 92C66.9062 94.875 66.9688 97.4688 66.9688 99.7812C67.0312 102.094 67.0625 103.906 67.0625 105.219H64.8125L61.25 85.4375C60.9375 85.125 60.2188 84.9375 59.0938 84.875C58.0312 84.8125 56.75 84.8438 55.25 84.9688C53.8125 85.0938 52.2188 85.2812 50.4688 85.5312C48.7812 85.7188 47.1562 85.875 45.5938 86C44.0938 86.0625 42.7188 86.0938 41.4688 86.0938C40.2188 86.0312 39.3125 85.8125 38.75 85.4375V105.219H33.9688C33.9688 105.031 33.9688 104.688 33.9688 104.188C34.0312 103.625 34.0625 103.062 34.0625 102.5C34.0625 101.938 34.0938 101.406 34.1562 100.906C34.2188 100.406 34.25 100.062 34.25 99.875C34.625 96.25 34.9062 92.5938 35.0938 88.9062C35.3438 85.1562 35.625 81.5312 35.9375 78.0312C36.25 74.5312 36.6562 71.1875 37.1562 68C37.7188 64.8125 38.5 61.9375 39.5 59.375C40.5 56.75 41.75 54.5312 43.25 52.7188C44.75 50.8438 46.625 49.4688 48.875 48.5938ZM50.375 52.9062C48.75 52.9062 47.375 53.5 46.25 54.6875C45.1875 55.8125 44.3125 57.3125 43.625 59.1875C42.9375 61 42.4062 63.0312 42.0312 65.2812C41.6562 67.5312 41.4062 69.75 41.2812 71.9375C41.1562 74.0625 41.0625 76.0625 41 77.9375C41 79.75 41 81.1562 41 82.1562C44.0625 82.1562 47.1875 81.9375 50.375 81.5C53.5625 81 56.5625 80.5 59.375 80C59.4375 79.75 59.4688 79.3438 59.4688 78.7812C59.5312 78.2188 59.5625 77.5938 59.5625 76.9062C59.625 76.2188 59.6562 75.5625 59.6562 74.9375C59.7188 74.3125 59.75 73.9062 59.75 73.7188C59.75 71.6562 59.625 69.6875 59.375 67.8125C59.1875 65.9375 58.75 64.125 58.0625 62.375C57.4375 60.5625 56.5 58.875 55.25 57.3125C54.0625 55.75 52.4375 54.2812 50.375 52.9062ZM72.875 60.2188C72.75 60.0938 72.5938 59.875 72.4062 59.5625C72.2188 59.25 72.0312 58.9062 71.8438 58.5312C71.6562 58.0938 71.4688 57.7188 71.2812 57.4062C71.1562 57.0312 71.0938 56.75 71.0938 56.5625C71.0938 56 71.3438 55.5625 71.8438 55.25C72.3438 54.9375 72.9062 54.75 73.5312 54.6875C74.1562 54.625 74.75 54.5938 75.3125 54.5938C75.9375 54.5938 76.3125 54.5938 76.4375 54.5938C76.625 54.5938 76.875 54.625 77.1875 54.6875C77.5625 54.6875 77.9375 54.7188 78.3125 54.7812C78.75 54.7812 79.125 54.8125 79.4375 54.875C79.75 54.875 79.9688 54.875 80.0938 54.875C82.1562 55.625 84.5 56.5 87.125 57.5C89.8125 58.5 92.5625 59.6562 95.375 60.9688C98.1875 62.2812 100.938 63.7812 103.625 65.4688C106.312 67.0938 108.719 68.9688 110.844 71.0938C112.969 73.1562 114.688 75.4375 116 77.9375C117.312 80.4375 117.969 83.2188 117.969 86.2812C117.969 88.9062 117.469 91.2812 116.469 93.4062C115.469 95.4688 114.125 97.2812 112.438 98.8438C110.812 100.344 108.906 101.656 106.719 102.781C104.531 103.844 102.281 104.719 99.9688 105.406C97.7188 106.031 95.4375 106.5 93.125 106.812C90.8125 107.125 88.6562 107.281 86.6562 107.281C86.2188 107.281 85.4688 107.25 84.4062 107.188C83.3438 107.188 82.25 107.156 81.125 107.094C80 107.031 78.9688 107 78.0312 107C77.1562 106.938 76.6875 106.906 76.625 106.906L76.4375 103.438L72.875 60.2188ZM78.2188 59.75C78.2188 59.875 78.2188 60.125 78.2188 60.5C78.2188 60.875 78.2188 61.3125 78.2188 61.8125C78.2812 62.25 78.3125 62.6562 78.3125 63.0312C78.3125 63.4062 78.3125 63.6875 78.3125 63.875C78.375 64.8125 78.4375 66.3125 78.5 68.375C78.625 70.4375 78.7188 72.7812 78.7812 75.4062C78.9062 78.0312 79.0312 80.7812 79.1562 83.6562C79.3438 86.4688 79.5 89.1875 79.625 91.8125C79.75 94.375 79.8438 96.7188 79.9062 98.8438C80.0312 100.906 80.0938 102.438 80.0938 103.438C80.4688 103.438 81.0625 103.469 81.875 103.531C82.75 103.531 83.6562 103.562 84.5938 103.625C85.5312 103.625 86.4062 103.656 87.2188 103.719C88.0938 103.719 88.7188 103.719 89.0938 103.719C91.9688 103.719 94.8125 103.375 97.625 102.688C100.438 101.938 102.938 100.844 105.125 99.4062C107.375 97.9062 109.188 96 110.562 93.6875C112 91.3125 112.719 88.4688 112.719 85.1562C112.719 82.7188 112.156 80.4062 111.031 78.2188C109.906 75.9688 108.406 73.9062 106.531 72.0312C104.719 70.1562 102.625 68.4688 100.25 66.9688C97.875 65.4688 95.4062 64.1875 92.8438 63.125C90.3438 62 87.8125 61.1562 85.25 60.5938C82.75 60.0312 80.4062 59.75 78.2188 59.75Z" fill="#D9C5B2"/>
<defs>
<filter id="filter0_d_81_690" x="0" y="0" width="159" height="161" filterUnits="userSpaceOnUse" color-interpolation-filters="sRGB">
<feFlood flood-opacity="0" result="BackgroundImageFix"/>
<feColorMatrix in="SourceAlpha" type="matrix" values="0 0 0 0 0 0 0 0 0 0 0 0 0 0 0 0 0 0 127 0" result="hardAlpha"/>
<feOffset dy="4"/>
<feGaussianBlur stdDeviation="2"/>
<feComposite in2="hardAlpha" operator="out"/>
<feColorMatrix type="matrix" values="0 0 0 0 0 0 0 0 0 0 0 0 0 0 0 0 0 0 0.25 0"/>
<feBlend mode="normal" in2="BackgroundImageFix" result="effect1_dropShadow_81_690"/>
<feBlend mode="normal" in="SourceGraphic" in2="effect1_dropShadow_81_690" result="shape"/>
</filter>
</defs>
</svg>
